<?xml version="1.0" encoding="UTF-8"?>
<svg id="_레이어_2" data-name="레이어 2" xmlns="http://www.w3.org/2000/svg" viewBox="0 0 94.51 21.5">
  <defs>
    <style>
      .cls-1 {
        fill: #fff;
      }

      .cls-2 {
        fill: #004ac0;
      }

      .cls-3 {
        fill: #0059da;
      }
    </style>
  </defs>
  <g id="Layer_1" data-name="Layer 1">
    <g>
      <g>
        <!-- V -->
        <path class="cls-1" d="m36.12,13.9l3.17-9.13h2.46l-4.27,11.2h-2.76l-4.25-11.2h2.48l3.17,9.13Z"/>
        <!-- L -->
        <path class="cls-1" d="m43.5,15.97V4.77h2.32v11.2h-2.32Z"/>
        <!-- A -->
        <path class="cls-1" d="m51.0,5.77c1.28-0.8,2.8-1.2,4.55-1.2,1.75,0,3.27,0.4,4.55,1.2,1.28,0.8,2.04,2.0,2.04,3.6v6.6h-2.32v-1.5c-0.77,1.1-2.1,1.65-3.99,1.65s-3.09-0.45-3.89-1.35c-0.8-0.9-1.2-2.07-1.2-3.52,0-1.45,0.48-2.61,1.43-3.48,0.96-0.87,2.25-1.3,3.88-1.3h3.89v-0.3c0-0.87-0.31-1.55-0.93-2.03-0.62-0.48-1.5-0.72-2.65-0.72s-2.14,0.24-2.97,0.72c-0.83,0.48-1.43,1.14-1.8,1.98h-2.42c0.43-1.4,1.3-2.5,2.58-3.3Zm7.9,5.83h-3.55c-0.87,0-1.55,0.2-2.05,0.6-0.5,0.4-0.75,0.95-0.75,1.65s0.25,1.25,0.75,1.65c0.5,0.4,1.18,0.6,2.05,0.6,1.15,0,2.07-0.29,2.75-0.87,0.68-0.58,1.02-1.35,1.02-2.31v-1.32h-0.22Z"/>
        <!-- N -->
        <path class="cls-1" d="m65.5,5.77c0.8-0.8,1.9-1.2,3.3-1.2,1.3,0,2.4,0.4,3.3,1.2,0.9,0.8,1.35,1.9,1.35,3.3v6.9h-2.32v-6.6c0-0.8-0.25-1.45-0.75-1.95-0.5-0.5-1.15-0.75-1.95-0.75s-1.45,0.25-1.95,0.75c-0.5,0.5-0.75,1.15-0.75,1.95v6.6h-2.32v-11.2h2.32v1.5c0.42-0.5,0.97-0.9,1.77-1.5Z"/>
        <!-- E -->
        <path class="cls-1" d="m76.7,11.24h8.56c-0.07,0.89-0.4,1.61-1,2.15-0.6,0.54-1.33,0.81-2.2,0.81-1.25,0-2.13-0.52-2.64-1.57h-2.5c0.34,1.03,0.95,1.87,1.84,2.53,0.89,0.66,1.99,0.99,3.3,0.99,1.07,0,2.03-0.24,2.88-0.72,0.85-0.48,1.51-1.16,1.99-2.03,0.48-0.87,0.72-1.89,0.72-3.04s-0.23-2.17-0.7-3.04c-0.47-0.87-1.12-1.55-1.97-2.02-0.85-0.47-1.82-0.71-2.92-0.71s-2,0.23-2.83,0.69c-0.83,0.46-1.47,1.11-1.93,1.94-0.46,0.83-0.69,1.79-0.69,2.88,0,0.42,0.03,0.8,0.08,1.14Zm2.34-1.87c0.01-0.85,0.32-1.54,0.91-2.05,0.6-0.52,1.34-0.77,2.22-0.77,0.8,0,1.48,0.25,2.05,0.76,0.57,0.51,0.91,1.2,1.02,2.06h-6.2Z"/>
        <!-- T -->
        <path class="cls-1" d="m91.0,6.97v9h-2.32v-9h-1.8v-2.2h1.8v-0.6c0-1.4,0.37-2.43,1.1-3.09,0.74-0.66,1.85-0.99,3.33-0.99v2.28c-0.73,0-1.25,0.14-1.56,0.42-0.31,0.28-0.47,0.76-0.47,1.44v0.54h2.47v2.2h-2.47Z"/>
      </g>
      <g>
        <path class="cls-2" d="m6.97,19.87c-1,0-1.89-.66-2.17-1.62L.08,2.31C-.27,1.15.6,0,1.8,0h8.16c1.18,0,2.03,1.11,1.74,2.25l-2.73,10.43c-.19.71.35,1.4,1.08,1.4h.31s0,5.79,0,5.79h-3.38Z"/>
        <path class="cls-3" d="m13.76,1.33l-1.43,5.38c-.14.53.12,1.08.61,1.3l2.3,1.07c.81.38.87,1.51.11,1.97l-4.98,3.02-1.54,5.79h9.5c1,0,1.89-.66,2.17-1.62l4.72-15.95c.34-1.15-.52-2.31-1.72-2.31h-7.99c-.81,0-1.53.55-1.73,1.33Z"/>
      </g>
    </g>
  </g>
</svg>